<svg width="673" height="152" viewBox="0 0 673 152" fill="none" xmlns="http://www.w3.org/2000/svg">
<path d="M55.6812 94.7C58.3812 89.3 51.0812 84.6 51.0812 84.6C28.9812 70.5 9.48121 37.4 9.48121 37.4C0.781214 74.6 55.7812 94.7 55.7812 94.7H55.6812Z" fill="#A57A1B"/>
<path d="M51.5811 100.9C53.2811 96.3 48.4811 94.7 48.4811 94.7C19.0811 83.7 2.18111 64.5 2.18111 64.5C-5.91889 93 51.5811 100.9 51.5811 100.9Z" fill="#1D1D1B"/>
<path d="M50.6812 105.9C51.4812 102 44.0812 100.9 44.0812 100.9C17.9812 98 0.181169 87.2 0.181169 87.2C-3.51883 110 50.6812 106 50.6812 106V105.9Z" fill="#A57A1B"/>
<path d="M39.3812 114.6C39.3812 114.6 45.8812 111.6 50.6812 111.4C50.6812 111.4 51.6812 110.3 50.6812 109.1C50.6812 109.1 10.3812 112 5.08118 106.1C5.08118 106.1 10.2812 122.3 39.3812 114.5V114.6Z" fill="#1D1D1B"/>
<path d="M48.8811 115.2C48.8811 115.2 27.0811 128.8 18.8811 126.8C18.8811 126.8 31.4811 134.9 45.5811 122.5C45.5811 122.5 49.1811 119.3 48.8811 115.2Z" fill="#A57A1B"/>
<path d="M50.6812 131.1C50.6812 131.1 50.0812 148.1 44.9812 151.8C44.9812 151.8 53.6812 150.6 52.6812 133.8C52.6812 133.8 51.6812 128.4 52.6812 126.4C52.6812 126.4 50.6812 128.7 50.5812 131L50.6812 131.1Z" fill="#A57A1B"/>
<path d="M50.6812 124.2C50.6812 124.2 47.4812 125.5 46.0812 127.8C46.0812 127.8 36.6812 144.9 29.5812 146C29.5812 146 39.0812 149.3 46.7812 131.6C46.7812 131.6 48.5812 125.5 50.6812 124.1V124.2Z" fill="#1D1D1B"/>
<path d="M82.6811 1.79999C63.5811 1.79999 46.2811 9.10001 33.2811 21.1C30.9811 23.2 29.0811 25.5 27.3811 27.9C23.7811 18.7 21.5811 9.1 22.5811 0C22.5811 0 -3.11888 26.5 42.1811 72.2C42.1811 72.2 62.8811 88.7 58.8811 95.8C58.8811 95.8 54.1811 102.7 53.7811 111.9C52.9811 117 54.1811 122.6 58.3811 128.3C60.9811 132.2 64.7811 136.1 70.3811 139.7C70.3811 139.7 64.0811 134.8 60.9811 127C60.1811 121.3 61.0811 114.5 65.2811 109.1C67.6811 105.9 71.2811 103.2 76.2811 101.5C76.4811 101.5 76.5811 101.4 76.7811 101.3C76.5811 101.3 76.4811 101.4 76.3811 101.5C71.1811 103.7 67.5811 108.4 65.9811 113.8C62.1811 126.5 69.3811 142.6 90.7811 137.6C85.8811 136.5 82.4811 133.7 80.5811 130.2C78.7811 126.8 78.2811 122.6 79.0811 118.7C79.9811 114.2 82.5811 110 86.7811 107.4C87.9811 106.7 89.3811 106.1 90.8811 105.7C99.9811 103.2 106.781 106.1 108.581 110.9C108.581 109.7 108.581 108.6 108.381 107.4C108.181 105.4 107.681 103.5 107.081 101.8C106.581 100.5 105.881 99.3 105.081 98.3C103.881 96.9 102.381 95.9 100.581 95.6C101.981 95.2 100.881 89.5 92.1811 86C89.7811 85 86.6811 84.2 82.9811 83.7C78.9811 83.2 73.8811 83.8 68.9811 86.2C67.1811 83 64.0811 79.3 58.9811 74.8C58.2811 74.2 57.6811 73.6 57.0811 73C53.7811 69.4 42.5811 56.6 33.7811 40.8C33.7811 36.8 35.3811 32.7 38.3811 29.5C49.7811 17.1 65.5811 11.2 82.9811 11.2C117.981 11.2 146.381 39.4 146.581 74.4C146.781 103.3 127.581 127.8 101.381 135.7C97.2811 139.9 92.9811 143.4 88.4811 146.2C87.4811 146.8 86.4811 147.4 85.4811 147.9C124.981 146.6 156.581 113.9 156.181 74C155.681 33.8 123.181 1.69998 82.9811 1.69998L82.6811 1.79999Z" fill="#1D1D1B"/>
<path d="M202.985 81.5847H172.185V79.5847C174.285 79.3847 175.585 79.1847 175.985 79.0847C176.985 78.6847 177.485 77.6847 177.485 76.1847V46.3847C177.485 45.4847 177.285 44.6847 176.885 44.2847C176.485 43.7847 175.785 43.3847 174.685 43.0847C173.585 42.7847 172.785 42.5847 172.285 42.5847V40.5847H200.585V50.1847H198.785C198.285 47.7847 197.485 45.9847 196.585 44.7847C195.685 43.6847 194.485 42.9847 193.085 42.8847C191.685 42.7847 189.885 42.6847 187.785 42.6847H181.685V59.1847H185.885C187.285 59.1847 188.485 59.0847 189.285 58.7847C190.085 58.4847 190.785 57.8847 191.385 57.0847C191.885 56.1847 192.385 54.7847 192.685 52.7847H194.485V68.3847H192.685C192.685 67.0847 192.385 65.8847 191.885 64.5847C191.385 63.3847 190.685 62.4847 189.785 62.1847C188.885 61.7847 187.685 61.5847 185.985 61.5847H181.785V74.1847C181.785 75.8847 181.985 76.9847 182.385 77.6847C182.785 78.3847 183.585 78.8847 184.685 79.0847C185.785 79.3847 187.785 79.4847 190.685 79.4847C193.585 79.4847 194.885 79.3847 195.985 79.0847C197.085 78.7847 197.885 78.2847 198.485 77.5847C199.085 76.8847 199.685 75.8847 200.285 74.3847C200.885 72.9847 201.485 71.4847 201.885 69.9847H203.985L203.185 81.7847L202.985 81.5847Z" fill="#1D1D1B"/>
<path d="M287.585 71.2847C286.085 75.1847 284.185 78.0847 281.885 79.8847C279.585 81.6847 276.685 82.5847 273.385 82.5847C270.085 82.5847 267.185 81.6847 264.485 79.8847C261.785 78.0847 259.685 75.5847 258.185 72.2847C256.685 69.0847 255.885 65.4847 255.885 61.4847C255.885 57.4847 256.685 53.6847 258.185 50.3847C259.785 47.0847 261.885 44.3847 264.585 42.5847C267.285 40.6847 270.185 39.7847 273.385 39.7847C276.585 39.7847 280.385 40.7847 283.085 42.7847L284.085 40.6847H285.985L286.285 55.0847H284.185C283.785 51.1847 282.685 48.0847 280.785 45.6847C278.885 43.2847 276.685 42.0847 273.985 42.0847C271.285 42.0847 269.085 42.8847 267.085 44.4847C265.085 46.0847 263.485 48.2847 262.385 51.2847C261.285 54.1847 260.685 57.5847 260.685 61.4847C260.685 65.3847 261.285 67.7847 262.485 70.6847C263.685 73.4847 265.285 75.7847 267.285 77.3847C269.285 78.9847 271.685 79.7847 274.185 79.7847C276.685 79.7847 279.085 79.0847 280.985 77.5847C282.885 76.0847 284.485 73.7847 285.685 70.5847L287.685 71.3847L287.585 71.2847Z" fill="#1D1D1B"/>
<path d="M328.085 81.5847H297.285V79.5847C299.385 79.3847 300.685 79.1847 301.085 79.0847C302.085 78.6847 302.585 77.6847 302.585 76.1847V46.3847C302.585 45.4847 302.385 44.6847 302.085 44.2847C301.685 43.7847 300.985 43.3847 299.885 43.0847C298.785 42.7847 297.985 42.5847 297.485 42.5847V40.5847H325.785V50.1847H323.985C323.485 47.7847 322.685 45.9847 321.785 44.7847C320.885 43.6847 319.685 42.9847 318.285 42.8847C316.885 42.7847 315.085 42.6847 312.985 42.6847H306.885V59.1847H311.085C312.485 59.1847 313.685 59.0847 314.485 58.7847C315.285 58.4847 315.985 57.8847 316.585 57.0847C317.085 56.1847 317.585 54.7847 317.885 52.7847H319.685V68.3847H317.885C317.885 67.0847 317.585 65.8847 317.085 64.5847C316.585 63.2847 315.885 62.4847 314.985 62.1847C314.085 61.7847 312.885 61.5847 311.185 61.5847H306.985V74.1847C306.985 75.8847 307.185 76.9847 307.585 77.6847C307.985 78.3847 308.785 78.8847 309.885 79.0847C310.985 79.2847 312.985 79.4847 315.885 79.4847C318.785 79.4847 320.085 79.3847 321.185 79.0847C322.285 78.7847 323.085 78.2847 323.685 77.5847C324.285 76.8847 324.885 75.8847 325.485 74.3847C326.085 72.9847 326.685 71.4847 327.085 69.9847H329.185L328.385 81.7847L328.085 81.5847Z" fill="#1D1D1B"/>
<path d="M367.785 81.5847H339.685V79.5847C341.485 79.4847 342.585 79.2847 343.085 79.0847C343.585 78.8847 343.885 78.4847 344.085 77.9847C344.285 77.4847 344.385 76.8847 344.385 76.1847V46.5847C344.385 45.6847 344.185 44.8847 343.785 44.3847C343.385 43.8847 342.785 43.3847 341.885 43.0847C340.985 42.7847 340.285 42.5847 339.685 42.4847V40.4847H353.285V42.4847C351.285 42.6847 349.985 42.9847 349.385 43.4847C348.785 43.9847 348.485 44.8847 348.485 46.1847V73.9847C348.485 75.9847 348.585 77.1847 348.885 77.7847C349.085 78.3847 349.585 78.7847 350.185 79.0847C350.785 79.2847 352.085 79.3847 354.085 79.3847C356.085 79.3847 357.985 79.2847 359.585 78.9847C361.185 78.6847 362.285 78.2847 362.785 77.6847C364.285 76.2847 365.585 73.5847 366.685 69.6847H368.785L367.885 81.4847L367.785 81.5847Z" fill="#1D1D1B"/>
<path d="M405.985 81.5847H377.885V79.5847C379.685 79.4847 380.785 79.2847 381.285 79.0847C381.785 78.8847 382.085 78.4847 382.285 77.9847C382.485 77.4847 382.585 76.8847 382.585 76.1847V46.5847C382.585 45.6847 382.385 44.8847 381.985 44.3847C381.585 43.8847 380.985 43.3847 380.085 43.0847C379.185 42.7847 378.485 42.5847 377.885 42.4847V40.4847H391.485V42.4847C389.485 42.6847 388.185 42.9847 387.585 43.4847C386.985 43.9847 386.685 44.8847 386.685 46.1847V73.9847C386.685 75.9847 386.785 77.1847 387.085 77.7847C387.285 78.3847 387.785 78.7847 388.385 79.0847C388.985 79.2847 390.285 79.3847 392.285 79.3847C394.285 79.3847 396.185 79.2847 397.785 78.9847C399.385 78.6847 400.485 78.2847 400.985 77.6847C402.485 76.2847 403.785 73.5847 404.885 69.6847H406.985L406.085 81.4847L405.985 81.5847Z" fill="#1D1D1B"/>
<path d="M446.185 81.5847H415.385V79.5847C417.485 79.3847 418.785 79.1847 419.185 79.0847C420.185 78.6847 420.685 77.6847 420.685 76.1847V46.3847C420.685 45.4847 420.485 44.6847 420.185 44.2847C419.785 43.7847 419.085 43.3847 417.985 43.0847C416.885 42.7847 416.085 42.5847 415.585 42.5847V40.5847H443.885V50.1847H442.085C441.585 47.7847 440.785 45.9847 439.885 44.7847C438.985 43.6847 437.785 42.9847 436.385 42.8847C434.985 42.7847 433.185 42.6847 431.085 42.6847H424.985V59.1847H429.185C430.585 59.1847 431.785 59.0847 432.585 58.7847C433.385 58.4847 434.085 57.8847 434.685 57.0847C435.185 56.1847 435.685 54.7847 435.985 52.7847H437.785V68.3847H435.985C435.985 67.0847 435.685 65.8847 435.185 64.5847C434.685 63.2847 433.985 62.4847 433.085 62.1847C432.185 61.7847 430.985 61.5847 429.285 61.5847H425.085V74.1847C425.085 75.8847 425.285 76.9847 425.685 77.6847C426.085 78.3847 426.885 78.8847 427.985 79.0847C429.085 79.2847 431.085 79.4847 433.985 79.4847C436.885 79.4847 438.185 79.3847 439.285 79.0847C440.385 78.7847 441.185 78.2847 441.785 77.5847C442.385 76.8847 442.985 75.8847 443.585 74.3847C444.185 72.9847 444.785 71.4847 445.185 69.9847H447.285L446.485 81.7847L446.185 81.5847Z" fill="#1D1D1B"/>
<path d="M496.085 42.4847C495.285 42.4847 494.485 42.5847 493.485 42.7847C492.485 42.9847 491.885 43.2847 491.485 43.5847C491.185 43.8847 490.885 44.2847 490.685 44.8847C490.485 45.3847 490.385 46.2847 490.285 47.3847C490.285 48.4847 490.185 49.7847 490.185 51.1847V81.9847H488.985L464.985 47.8847V69.9847C464.985 74.2847 465.585 77.0847 466.685 78.1847C466.985 78.5847 467.685 78.8847 468.685 79.0847C469.685 79.3847 470.685 79.4847 471.785 79.4847V81.4847H456.485V79.4847C457.085 79.4847 457.885 79.3847 458.885 79.1847C459.885 78.9847 460.585 78.6847 460.985 78.2847C461.385 77.8847 461.685 77.3847 461.985 76.6847C462.185 75.9847 462.385 75.0847 462.485 73.9847C462.585 72.8847 462.585 71.6847 462.585 70.3847V49.2847C462.585 48.0847 462.385 46.9847 461.885 45.9847C461.385 44.9847 460.585 44.1847 459.385 43.5847C458.185 42.8847 456.985 42.5847 455.685 42.3847V40.4847H464.885L487.685 72.9847V51.6847C487.685 50.0847 487.685 48.6847 487.485 47.5847C487.385 46.4847 487.185 45.5847 486.985 44.8847C486.785 44.2847 486.385 43.7847 485.985 43.4847C485.585 43.1847 484.785 42.9847 483.585 42.7847C482.385 42.5847 481.585 42.4847 481.085 42.4847V40.4847H496.185V42.4847H496.085Z" fill="#1D1D1B"/>
<path d="M537.385 71.2847C535.885 75.1847 533.985 78.0847 531.685 79.8847C529.385 81.6847 526.485 82.5847 523.185 82.5847C519.885 82.5847 516.985 81.6847 514.285 79.8847C511.585 78.0847 509.485 75.5847 507.985 72.2847C506.485 69.0847 505.685 65.4847 505.685 61.4847C505.685 57.4847 506.485 53.6847 507.985 50.3847C509.585 47.0847 511.685 44.3847 514.385 42.5847C517.085 40.6847 519.985 39.7847 523.185 39.7847C526.385 39.7847 530.185 40.7847 532.885 42.7847L533.885 40.6847H535.785L536.085 55.0847H533.985C533.585 51.1847 532.485 48.0847 530.585 45.6847C528.685 43.2847 526.485 42.0847 523.785 42.0847C521.085 42.0847 518.885 42.8847 516.885 44.4847C514.885 46.0847 513.285 48.2847 512.185 51.2847C511.085 54.1847 510.485 57.5847 510.485 61.4847C510.485 65.3847 511.085 67.7847 512.285 70.6847C513.485 73.4847 515.085 75.7847 517.085 77.3847C519.085 78.9847 521.485 79.7847 523.985 79.7847C526.485 79.7847 528.885 79.0847 530.785 77.5847C532.685 76.0847 534.285 73.7847 535.485 70.5847L537.485 71.3847L537.385 71.2847Z" fill="#1D1D1B"/>
<path d="M577.985 81.5847H547.185V79.5847C549.285 79.3847 550.585 79.1847 550.985 79.0847C551.985 78.6847 552.485 77.6847 552.485 76.1847V46.3847C552.485 45.4847 552.285 44.6847 551.985 44.2847C551.585 43.7847 550.885 43.3847 549.785 43.0847C548.685 42.7847 547.885 42.5847 547.385 42.5847V40.5847H575.685V50.1847H573.885C573.385 47.7847 572.585 45.9847 571.685 44.7847C570.785 43.6847 569.585 42.9847 568.185 42.8847C566.785 42.7847 564.985 42.6847 562.885 42.6847H556.785V59.1847H560.985C562.385 59.1847 563.585 59.0847 564.385 58.7847C565.185 58.4847 565.885 57.8847 566.485 57.0847C566.985 56.1847 567.485 54.7847 567.785 52.7847H569.585V68.3847H567.785C567.785 67.0847 567.485 65.8847 566.985 64.5847C566.485 63.2847 565.785 62.4847 564.885 62.1847C563.985 61.7847 562.785 61.5847 561.085 61.5847H556.885V74.1847C556.885 75.8847 557.085 76.9847 557.485 77.6847C557.885 78.3847 558.685 78.8847 559.785 79.0847C560.885 79.2847 562.885 79.4847 565.785 79.4847C568.685 79.4847 569.985 79.3847 571.085 79.0847C572.185 78.7847 572.985 78.2847 573.585 77.5847C574.185 76.8847 574.785 75.8847 575.385 74.3847C575.985 72.9847 576.585 71.4847 576.985 69.9847H579.085L578.285 81.7847L577.985 81.5847Z" fill="#1D1D1B"/>
<path d="M636.185 70.4848C636.185 72.5848 635.685 74.4848 634.585 76.1848C633.485 77.8848 631.985 79.2848 630.085 80.1848C628.185 81.0848 625.885 81.5848 623.385 81.5848H607.585V79.5848C608.285 79.5848 609.085 79.5848 609.885 79.2848C610.685 79.0848 611.385 78.7848 611.785 78.1848C612.185 77.6848 612.385 76.9848 612.385 76.1848V46.2848C612.385 45.4848 612.185 44.7848 611.885 44.1848C611.585 43.6848 610.985 43.1848 610.085 42.8848C609.185 42.5848 608.485 42.3848 607.885 42.3848V40.3848H623.485C625.385 40.3848 627.185 40.7848 628.885 41.4848C630.485 42.1848 631.785 43.2848 632.685 44.5848C633.585 45.8848 634.085 47.4848 634.085 49.2848C634.085 51.0848 633.285 53.9848 631.685 55.6848C630.085 57.3848 627.785 58.6848 624.885 59.2848C628.585 59.9848 631.485 61.2848 633.385 63.0848C635.285 64.9848 636.285 67.2848 636.285 70.1848L636.185 70.4848ZM629.085 49.8848C629.085 47.3848 628.485 45.5848 627.285 44.3848C626.085 43.1848 624.185 42.5848 621.685 42.5848H616.385V58.7848H620.885C623.585 58.7848 625.585 58.0848 626.985 56.5848C628.285 55.1848 628.985 52.8848 628.985 49.7848L629.085 49.8848ZM631.185 69.4848C631.185 66.8848 630.385 64.7848 628.785 63.2848C627.185 61.6848 624.985 60.8848 622.385 60.8848C619.785 60.8848 617.785 60.8848 616.485 60.9848V75.5848C616.485 78.0848 618.385 79.3848 622.085 79.3848C625.785 79.3848 627.585 78.5848 629.085 76.8848C630.585 75.1848 631.285 72.6848 631.285 69.3848L631.185 69.4848Z" fill="#1D1D1B"/>
<path d="M672.585 70.0847C672.585 72.3847 672.085 74.5847 670.985 76.3847C669.885 78.2847 668.485 79.7847 666.585 80.7847C664.685 81.7847 662.685 82.2847 660.385 82.2847C656.785 82.2847 653.685 81.3847 651.185 79.4847L650.285 81.5847H648.385L647.985 67.8847H649.885C650.685 72.0847 651.985 75.1847 653.685 77.0847C655.485 78.9847 657.785 79.9847 660.685 79.9847C663.585 79.9847 665.385 79.2847 666.685 77.7847C667.985 76.3847 668.685 74.3847 668.685 71.7847C668.685 68.1847 667.185 65.6847 664.185 64.1847C663.085 63.6847 661.685 63.0847 659.985 62.3847C657.085 61.1847 655.085 60.2847 653.885 59.4847C652.685 58.6847 651.785 57.8847 651.085 57.0847C650.385 56.1847 649.785 55.1847 649.485 54.0847C649.085 52.9847 648.885 51.6847 648.885 50.2847C648.885 48.8847 649.385 46.5847 650.285 44.9847C651.185 43.3847 652.485 42.0847 654.085 41.0847C655.685 40.1847 657.385 39.6847 659.185 39.6847C662.685 39.6847 665.585 40.6847 667.885 42.5847L668.885 40.4847H670.785L670.985 53.9847H668.985C668.185 49.6847 666.985 46.5847 665.385 44.7847C663.785 42.9847 661.685 42.0847 659.085 42.0847C656.485 42.0847 655.485 42.6847 654.185 43.9847C652.885 45.1847 652.285 46.7847 652.285 48.7847C652.285 50.7847 652.885 52.9847 654.085 54.3847C655.285 55.6847 657.885 57.0847 661.785 58.5847C664.585 59.5847 666.685 60.6847 668.085 61.6847C669.485 62.6847 670.485 63.8847 671.185 65.2847C671.885 66.6847 672.285 68.3847 672.285 70.2847L672.585 70.0847Z" fill="#1D1D1B"/>
<path d="M258.285 101.085C261.885 101.085 264.285 102.685 264.285 105.785C264.285 108.885 262.885 109.685 261.085 109.985C263.385 110.185 264.985 111.885 264.985 114.385C264.985 116.885 262.585 119.385 258.585 119.385H250.585V100.985H258.385L258.285 101.085ZM252.085 109.485H258.085C260.885 109.485 262.785 108.585 262.785 105.885C262.785 103.185 261.185 102.485 258.285 102.485H252.185V109.485H252.085ZM252.085 118.085H258.585C261.685 118.085 263.385 116.985 263.385 114.385C263.385 111.785 261.685 110.885 258.485 110.885H252.185V118.085H252.085Z" fill="#1D1D1B"/>
<path d="M276.785 112.085V101.085H278.385V111.885C278.385 116.085 280.785 118.285 284.385 118.285C287.985 118.285 290.385 116.085 290.385 111.885V101.085H291.985V112.085C291.985 116.985 288.785 119.685 284.385 119.685C279.985 119.685 276.785 116.985 276.785 112.085Z" fill="#1D1D1B"/>
<path d="M315.585 114.585C315.585 112.885 314.485 111.785 311.985 111.285L309.185 110.685C305.985 109.985 304.185 108.585 304.185 105.785C304.185 102.985 306.685 100.885 310.385 100.885C314.085 100.885 316.285 102.585 316.585 105.085H315.085C314.785 103.385 313.185 102.285 310.385 102.285C307.585 102.285 305.785 103.385 305.785 105.685C305.785 107.985 307.185 108.585 309.785 109.185L312.585 109.785C315.785 110.485 317.185 111.985 317.185 114.485C317.185 116.985 314.385 119.685 310.685 119.685C306.985 119.685 304.085 117.985 303.685 115.085H305.285C305.585 117.085 307.585 118.285 310.685 118.285C313.785 118.285 315.585 116.985 315.585 114.585Z" fill="#1D1D1B"/>
<path d="M330.985 119.485H329.385V101.085H330.985V119.485Z" fill="#1D1D1B"/>
<path d="M345.785 100.985L358.185 116.985V100.985H359.685V119.485H358.285L345.885 103.485V119.485H344.385V100.985H345.785Z" fill="#1D1D1B"/>
<path d="M372.885 119.485V101.085H385.485V102.485H374.485V109.485H384.885V110.885H374.485V117.985H385.585V119.385H372.985L372.885 119.485Z" fill="#1D1D1B"/>
<path d="M408.585 114.585C408.585 112.885 407.485 111.785 404.985 111.285L402.185 110.685C398.985 109.985 397.185 108.585 397.185 105.785C397.185 102.985 399.685 100.885 403.385 100.885C407.085 100.885 409.285 102.585 409.585 105.085H408.085C407.785 103.385 406.185 102.285 403.385 102.285C400.585 102.285 398.785 103.385 398.785 105.685C398.785 107.985 400.185 108.585 402.785 109.185L405.585 109.785C408.785 110.485 410.185 111.985 410.185 114.485C410.185 116.985 407.385 119.685 403.685 119.685C399.985 119.685 397.085 117.985 396.685 115.085H398.285C398.585 117.085 400.585 118.285 403.685 118.285C406.785 118.285 408.585 116.985 408.585 114.585Z" fill="#1D1D1B"/>
<path d="M432.785 114.585C432.785 112.885 431.685 111.785 429.185 111.285L426.385 110.685C423.185 109.985 421.385 108.585 421.385 105.785C421.385 102.985 423.885 100.885 427.585 100.885C431.285 100.885 433.485 102.585 433.785 105.085H432.285C431.985 103.385 430.385 102.285 427.585 102.285C424.785 102.285 422.985 103.385 422.985 105.685C422.985 107.985 424.385 108.585 426.985 109.185L429.785 109.785C432.985 110.485 434.385 111.985 434.385 114.485C434.385 116.985 431.585 119.685 427.885 119.685C424.185 119.685 421.285 117.985 420.885 115.085H422.485C422.785 117.085 424.785 118.285 427.885 118.285C430.985 118.285 432.785 116.985 432.785 114.585Z" fill="#1D1D1B"/>
<path d="M471.185 114.585C471.185 112.885 470.085 111.785 467.585 111.285L464.785 110.685C461.585 109.985 459.785 108.585 459.785 105.785C459.785 102.985 462.285 100.885 465.985 100.885C469.685 100.885 471.885 102.585 472.185 105.085H470.685C470.385 103.385 468.785 102.285 465.985 102.285C463.185 102.285 461.385 103.385 461.385 105.685C461.385 107.985 462.785 108.585 465.385 109.185L468.185 109.785C471.385 110.485 472.785 111.985 472.785 114.485C472.785 116.985 469.985 119.685 466.285 119.685C462.585 119.685 459.685 117.985 459.285 115.085H460.885C461.185 117.085 463.185 118.285 466.285 118.285C469.385 118.285 471.185 116.985 471.185 114.585Z" fill="#1D1D1B"/>
<path d="M493.385 100.785C497.685 100.785 500.985 103.285 501.885 106.885H500.285C499.585 104.285 497.085 102.285 493.385 102.285C489.685 102.285 485.485 105.685 485.485 110.285C485.485 114.885 488.785 118.285 493.385 118.285C497.985 118.285 499.685 116.185 500.285 113.685H501.885C500.985 117.285 497.685 119.785 493.285 119.785C488.885 119.785 483.785 115.585 483.785 110.285C483.785 104.985 487.885 100.885 493.285 100.885L493.385 100.785Z" fill="#1D1D1B"/>
<path d="M527.285 109.485V101.085H528.885V119.485H527.285V110.885H515.485V119.485H513.885V101.085H515.485V109.485H527.285Z" fill="#1D1D1B"/>
<path d="M559.885 110.285C559.885 115.585 555.685 119.785 550.485 119.785C545.285 119.785 541.085 115.585 541.085 110.285C541.085 104.985 545.285 100.885 550.485 100.885C555.685 100.885 559.885 105.085 559.885 110.285ZM558.285 110.285C558.285 105.685 554.885 102.385 550.485 102.385C546.085 102.385 542.685 105.785 542.685 110.285C542.685 114.785 546.085 118.185 550.485 118.185C554.885 118.185 558.285 114.785 558.285 110.285Z" fill="#1D1D1B"/>
<path d="M589.885 110.285C589.885 115.585 585.685 119.785 580.485 119.785C575.285 119.785 571.085 115.585 571.085 110.285C571.085 104.985 575.285 100.885 580.485 100.885C585.685 100.885 589.885 105.085 589.885 110.285ZM588.285 110.285C588.285 105.685 584.885 102.385 580.485 102.385C576.085 102.385 572.685 105.785 572.685 110.285C572.685 114.785 576.085 118.185 580.485 118.185C584.885 118.185 588.285 114.785 588.285 110.285Z" fill="#1D1D1B"/>
<path d="M602.185 119.485V101.085H603.785V118.085H614.485V119.585H602.185V119.485Z" fill="#1D1D1B"/>
<path d="M228.085 61.2847L225.785 57.6847C223.585 54.1847 221.085 50.5847 218.485 46.7847C217.485 45.2847 216.485 44.1847 215.485 43.6847C214.485 43.0847 213.485 42.6847 212.185 42.5847V40.5847H227.085V42.5847H226.085C225.085 42.5847 224.185 42.7847 223.585 43.0847C222.985 43.2847 222.585 43.6847 222.585 44.0847C222.585 44.6847 223.085 45.9847 224.085 47.8847C225.085 49.7847 227.185 53.2847 230.285 58.2847M231.785 60.0847C234.985 64.7847 238.185 69.8847 241.585 75.2847C242.685 77.0847 243.685 78.2847 244.485 78.7847C245.285 79.2847 246.585 79.5847 248.185 79.5847V81.5847H232.985V79.5847H234.085C235.085 79.5847 235.885 79.3847 236.585 79.0847C237.285 78.7847 237.585 78.4847 237.585 77.9847C237.585 77.4847 237.285 76.5847 236.785 75.5847C236.285 74.5847 235.185 72.6847 233.585 69.9847C231.985 67.2847 230.585 64.9847 229.485 63.2847" fill="#1D1D1B"/>
<path d="M229.485 63.4847L218.285 79.8847C213.185 87.3847 207.985 91.2847 200.785 90.2847V89.6847C207.385 89.3847 211.885 82.8847 215.385 78.0847L227.685 60.6847L230.185 57.4847L241.285 41.6847C246.185 34.7847 250.585 31.4847 257.485 32.0847V32.6847C251.185 32.6847 247.385 39.0847 244.385 43.0847L231.985 60.0847" fill="#A57A1B"/>
</svg>
